<mxfile host="app.diagrams.net" modified="2023-12-18T15:46:26.408Z" agent="Mozilla/5.0 (Windows NT 10.0; Win64; x64) AppleWebKit/537.36 (KHTML, like Gecko) Chrome/120.0.0.0 Safari/537.36 Edg/120.0.0.0" etag="QhjWAT4L5cSsIxNi17W3" version="22.1.11" type="github">
  <diagram id="C5RBs43oDa-KdzZeNtuy" name="Page-1">
    <mxGraphModel dx="868" dy="474" grid="0" gridSize="10" guides="1" tooltips="1" connect="1" arrows="1" fold="1" page="1" pageScale="1" pageWidth="827" pageHeight="1169" background="#000000" math="0" shadow="0">
      <root>
        <mxCell id="WIyWlLk6GJQsqaUBKTNV-0" />
        <mxCell id="WIyWlLk6GJQsqaUBKTNV-1" parent="WIyWlLk6GJQsqaUBKTNV-0" />
        <mxCell id="NjZdGsnl9mEb0PCTOR8s-37" value="" style="line;strokeWidth=1;direction=south;html=1;strokeColor=#FFFFFF;fontColor=#FFFFFF;fillColor=#182E3E;dashed=1;labelBackgroundColor=none;" vertex="1" parent="WIyWlLk6GJQsqaUBKTNV-1">
          <mxGeometry x="690" y="176" width="10" height="291" as="geometry" />
        </mxCell>
        <mxCell id="NjZdGsnl9mEb0PCTOR8s-0" value="" style="edgeStyle=none;curved=1;rounded=0;orthogonalLoop=1;jettySize=auto;html=1;fontSize=12;startSize=8;endSize=8;" edge="1" parent="WIyWlLk6GJQsqaUBKTNV-1" source="NjZdGsnl9mEb0PCTOR8s-1" target="NjZdGsnl9mEb0PCTOR8s-10">
          <mxGeometry relative="1" as="geometry" />
        </mxCell>
        <mxCell id="NjZdGsnl9mEb0PCTOR8s-1" value="&lt;u&gt;:系統管理員&lt;/u&gt;" style="shape=umlActor;verticalLabelPosition=bottom;verticalAlign=top;html=1;strokeColor=#FFFFFF;fontColor=#FFFFFF;fillColor=#003300;labelBackgroundColor=none;" vertex="1" parent="WIyWlLk6GJQsqaUBKTNV-1">
          <mxGeometry x="55" y="88" width="30" height="52" as="geometry" />
        </mxCell>
        <mxCell id="NjZdGsnl9mEb0PCTOR8s-2" value="&lt;u&gt;登錄&lt;/u&gt;" style="rounded=0;whiteSpace=wrap;html=1;strokeColor=#FFFFFF;fontColor=#FFFFFF;fillColor=#003300;labelBackgroundColor=none;" vertex="1" parent="WIyWlLk6GJQsqaUBKTNV-1">
          <mxGeometry x="164" y="120" width="84" height="37" as="geometry" />
        </mxCell>
        <mxCell id="NjZdGsnl9mEb0PCTOR8s-3" value="&lt;u&gt;訂餐者管理&lt;br&gt;介面&lt;/u&gt;" style="rounded=0;whiteSpace=wrap;html=1;strokeColor=#FFFFFF;fontColor=#FFFFFF;fillColor=#003300;labelBackgroundColor=none;" vertex="1" parent="WIyWlLk6GJQsqaUBKTNV-1">
          <mxGeometry x="490" y="120" width="84" height="37" as="geometry" />
        </mxCell>
        <mxCell id="NjZdGsnl9mEb0PCTOR8s-4" value="&lt;u&gt;管理介面&lt;/u&gt;" style="rounded=0;whiteSpace=wrap;html=1;strokeColor=#FFFFFF;fontColor=#FFFFFF;fillColor=#003300;labelBackgroundColor=none;" vertex="1" parent="WIyWlLk6GJQsqaUBKTNV-1">
          <mxGeometry x="327" y="120" width="84" height="37" as="geometry" />
        </mxCell>
        <mxCell id="NjZdGsnl9mEb0PCTOR8s-5" value="" style="line;strokeWidth=1;direction=south;html=1;strokeColor=#FFFFFF;fontColor=#FFFFFF;fillColor=#182E3E;dashed=1;labelBackgroundColor=none;" vertex="1" parent="WIyWlLk6GJQsqaUBKTNV-1">
          <mxGeometry x="65" y="176" width="10" height="291" as="geometry" />
        </mxCell>
        <mxCell id="NjZdGsnl9mEb0PCTOR8s-6" value="" style="line;strokeWidth=1;direction=south;html=1;strokeColor=#FFFFFF;fontColor=#FFFFFF;fillColor=#182E3E;dashed=1;labelBackgroundColor=none;" vertex="1" parent="WIyWlLk6GJQsqaUBKTNV-1">
          <mxGeometry x="364" y="176" width="10" height="291" as="geometry" />
        </mxCell>
        <mxCell id="NjZdGsnl9mEb0PCTOR8s-7" value="" style="line;strokeWidth=1;direction=south;html=1;strokeColor=#FFFFFF;fontColor=#FFFFFF;fillColor=#182E3E;dashed=1;labelBackgroundColor=none;" vertex="1" parent="WIyWlLk6GJQsqaUBKTNV-1">
          <mxGeometry x="201" y="176" width="10" height="291" as="geometry" />
        </mxCell>
        <mxCell id="NjZdGsnl9mEb0PCTOR8s-8" value="" style="line;strokeWidth=1;direction=south;html=1;strokeColor=#FFFFFF;fontColor=#FFFFFF;fillColor=#182E3E;dashed=1;labelBackgroundColor=none;" vertex="1" parent="WIyWlLk6GJQsqaUBKTNV-1">
          <mxGeometry x="527" y="176" width="10" height="291" as="geometry" />
        </mxCell>
        <mxCell id="NjZdGsnl9mEb0PCTOR8s-9" value="" style="edgeStyle=orthogonalEdgeStyle;rounded=0;orthogonalLoop=1;jettySize=auto;html=1;curved=0;strokeColor=#003300;labelBackgroundColor=none;fontColor=default;" edge="1" parent="WIyWlLk6GJQsqaUBKTNV-1">
          <mxGeometry relative="1" as="geometry">
            <mxPoint x="75" y="196" as="sourcePoint" />
            <mxPoint x="201" y="196" as="targetPoint" />
          </mxGeometry>
        </mxCell>
        <mxCell id="NjZdGsnl9mEb0PCTOR8s-10" value="" style="html=1;points=[[0,0,0,0,5],[0,1,0,0,-5],[1,0,0,0,5],[1,1,0,0,-5]];perimeter=orthogonalPerimeter;outlineConnect=0;targetShapes=umlLifeline;portConstraint=eastwest;newEdgeStyle={&quot;curved&quot;:0,&quot;rounded&quot;:0};strokeColor=#FFFFFF;fontColor=#FFFFFF;fillColor=#003300;labelBackgroundColor=none;" vertex="1" parent="WIyWlLk6GJQsqaUBKTNV-1">
          <mxGeometry x="65" y="176" width="10" height="32" as="geometry" />
        </mxCell>
        <mxCell id="NjZdGsnl9mEb0PCTOR8s-11" value="" style="html=1;points=[[0,0,0,0,5],[0,1,0,0,-5],[1,0,0,0,5],[1,1,0,0,-5]];perimeter=orthogonalPerimeter;outlineConnect=0;targetShapes=umlLifeline;portConstraint=eastwest;newEdgeStyle={&quot;curved&quot;:0,&quot;rounded&quot;:0};strokeColor=#FFFFFF;fontColor=#FFFFFF;fillColor=#003300;labelBackgroundColor=none;" vertex="1" parent="WIyWlLk6GJQsqaUBKTNV-1">
          <mxGeometry x="201" y="196" width="10" height="73" as="geometry" />
        </mxCell>
        <mxCell id="NjZdGsnl9mEb0PCTOR8s-12" value="1:註冊" style="text;html=1;align=center;verticalAlign=middle;resizable=0;points=[];autosize=1;strokeColor=none;fillColor=none;fontColor=#FFFFFF;labelBackgroundColor=none;" vertex="1" parent="WIyWlLk6GJQsqaUBKTNV-1">
          <mxGeometry x="112" y="170" width="52" height="26" as="geometry" />
        </mxCell>
        <mxCell id="NjZdGsnl9mEb0PCTOR8s-14" value="" style="html=1;points=[[0,0,0,0,5],[0,1,0,0,-5],[1,0,0,0,5],[1,1,0,0,-5]];perimeter=orthogonalPerimeter;outlineConnect=0;targetShapes=umlLifeline;portConstraint=eastwest;newEdgeStyle={&quot;curved&quot;:0,&quot;rounded&quot;:0};strokeColor=#FFFFFF;fontColor=#FFFFFF;fillColor=#003300;labelBackgroundColor=none;" vertex="1" parent="WIyWlLk6GJQsqaUBKTNV-1">
          <mxGeometry x="364" y="219" width="10" height="64" as="geometry" />
        </mxCell>
        <mxCell id="NjZdGsnl9mEb0PCTOR8s-15" value="" style="edgeStyle=orthogonalEdgeStyle;rounded=0;orthogonalLoop=1;jettySize=auto;html=1;curved=0;strokeColor=#003300;labelBackgroundColor=none;fontColor=default;" edge="1" parent="WIyWlLk6GJQsqaUBKTNV-1">
          <mxGeometry relative="1" as="geometry">
            <mxPoint x="212" y="218" as="sourcePoint" />
            <mxPoint x="364" y="218" as="targetPoint" />
          </mxGeometry>
        </mxCell>
        <mxCell id="NjZdGsnl9mEb0PCTOR8s-16" value="2:身分驗證" style="text;html=1;align=center;verticalAlign=middle;resizable=0;points=[];autosize=1;strokeColor=none;fillColor=none;fontColor=#FFFFFF;labelBackgroundColor=none;" vertex="1" parent="WIyWlLk6GJQsqaUBKTNV-1">
          <mxGeometry x="250" y="196" width="76" height="26" as="geometry" />
        </mxCell>
        <mxCell id="NjZdGsnl9mEb0PCTOR8s-17" value="" style="html=1;points=[[0,0,0,0,5],[0,1,0,0,-5],[1,0,0,0,5],[1,1,0,0,-5]];perimeter=orthogonalPerimeter;outlineConnect=0;targetShapes=umlLifeline;portConstraint=eastwest;newEdgeStyle={&quot;curved&quot;:0,&quot;rounded&quot;:0};strokeColor=#FFFFFF;fontColor=#FFFFFF;fillColor=#003300;labelBackgroundColor=none;" vertex="1" parent="WIyWlLk6GJQsqaUBKTNV-1">
          <mxGeometry x="526" y="264" width="10" height="19" as="geometry" />
        </mxCell>
        <mxCell id="NjZdGsnl9mEb0PCTOR8s-18" value="" style="edgeStyle=orthogonalEdgeStyle;rounded=0;orthogonalLoop=1;jettySize=auto;html=1;curved=0;strokeColor=#003300;labelBackgroundColor=none;fontColor=default;" edge="1" parent="WIyWlLk6GJQsqaUBKTNV-1">
          <mxGeometry relative="1" as="geometry">
            <mxPoint x="374" y="265" as="sourcePoint" />
            <mxPoint x="526" y="265" as="targetPoint" />
          </mxGeometry>
        </mxCell>
        <mxCell id="NjZdGsnl9mEb0PCTOR8s-19" value="4:更新訂餐者信息" style="text;html=1;align=center;verticalAlign=middle;resizable=0;points=[];autosize=1;strokeColor=none;fillColor=none;fontColor=#FFFFFF;labelBackgroundColor=none;" vertex="1" parent="WIyWlLk6GJQsqaUBKTNV-1">
          <mxGeometry x="394" y="243" width="112" height="26" as="geometry" />
        </mxCell>
        <mxCell id="NjZdGsnl9mEb0PCTOR8s-21" value="" style="html=1;points=[[0,0,0,0,5],[0,1,0,0,-5],[1,0,0,0,5],[1,1,0,0,-5]];perimeter=orthogonalPerimeter;outlineConnect=0;targetShapes=umlLifeline;portConstraint=eastwest;newEdgeStyle={&quot;curved&quot;:0,&quot;rounded&quot;:0};strokeColor=#FFFFFF;fontColor=#FFFFFF;fillColor=#003300;labelBackgroundColor=none;" vertex="1" parent="WIyWlLk6GJQsqaUBKTNV-1">
          <mxGeometry x="527" y="320" width="10" height="27" as="geometry" />
        </mxCell>
        <mxCell id="NjZdGsnl9mEb0PCTOR8s-23" value="" style="rounded=0;orthogonalLoop=1;jettySize=auto;html=1;strokeColor=#006600;labelBackgroundColor=none;fontColor=default;entryX=0.763;entryY=0.14;entryDx=0;entryDy=0;entryPerimeter=0;dashed=1;" edge="1" parent="WIyWlLk6GJQsqaUBKTNV-1" source="NjZdGsnl9mEb0PCTOR8s-63">
          <mxGeometry relative="1" as="geometry">
            <mxPoint x="367.4" y="419.41" as="sourcePoint" />
            <mxPoint x="75.00000000000003" y="418.004" as="targetPoint" />
          </mxGeometry>
        </mxCell>
        <mxCell id="NjZdGsnl9mEb0PCTOR8s-22" value="" style="html=1;points=[[0,0,0,0,5],[0,1,0,0,-5],[1,0,0,0,5],[1,1,0,0,-5]];perimeter=orthogonalPerimeter;outlineConnect=0;targetShapes=umlLifeline;portConstraint=eastwest;newEdgeStyle={&quot;curved&quot;:0,&quot;rounded&quot;:0};strokeColor=#FFFFFF;fontColor=#FFFFFF;fillColor=#003300;labelBackgroundColor=none;" vertex="1" parent="WIyWlLk6GJQsqaUBKTNV-1">
          <mxGeometry x="690" y="320" width="10" height="27" as="geometry" />
        </mxCell>
        <mxCell id="NjZdGsnl9mEb0PCTOR8s-26" value="7:退出" style="text;html=1;align=center;verticalAlign=middle;resizable=0;points=[];autosize=1;strokeColor=none;fillColor=none;fontColor=#FFFFFF;labelBackgroundColor=none;" vertex="1" parent="WIyWlLk6GJQsqaUBKTNV-1">
          <mxGeometry x="295" y="396" width="52" height="26" as="geometry" />
        </mxCell>
        <mxCell id="NjZdGsnl9mEb0PCTOR8s-27" value="5:提交信息" style="text;html=1;align=center;verticalAlign=middle;resizable=0;points=[];autosize=1;strokeColor=none;fillColor=none;fontColor=#FFFFFF;labelBackgroundColor=none;" vertex="1" parent="WIyWlLk6GJQsqaUBKTNV-1">
          <mxGeometry x="579" y="298" width="76" height="26" as="geometry" />
        </mxCell>
        <mxCell id="NjZdGsnl9mEb0PCTOR8s-28" value="" style="shape=table;startSize=0;container=1;collapsible=0;childLayout=tableLayout;fontSize=16;strokeColor=#FFFFFF;fontColor=#FFFFFF;fillColor=#003300;gradientColor=default;swimlaneFillColor=none;gradientDirection=south;rounded=1;" vertex="1" parent="WIyWlLk6GJQsqaUBKTNV-1">
          <mxGeometry x="40" y="40" width="709" height="29" as="geometry" />
        </mxCell>
        <mxCell id="NjZdGsnl9mEb0PCTOR8s-29" style="shape=tableRow;horizontal=0;startSize=0;swimlaneHead=0;swimlaneBody=0;strokeColor=inherit;top=0;left=0;bottom=0;right=0;collapsible=0;dropTarget=0;fillColor=none;points=[[0,0.5],[1,0.5]];portConstraint=eastwest;fontSize=16;fontColor=#FFFFFF;" vertex="1" parent="NjZdGsnl9mEb0PCTOR8s-28">
          <mxGeometry width="709" height="29" as="geometry" />
        </mxCell>
        <mxCell id="NjZdGsnl9mEb0PCTOR8s-30" value="&lt;font style=&quot;font-size: 12px;&quot;&gt;:系統管理員&lt;/font&gt;" style="shape=partialRectangle;html=1;whiteSpace=wrap;connectable=0;strokeColor=inherit;overflow=hidden;fillColor=none;top=0;left=0;bottom=0;right=0;pointerEvents=1;fontSize=16;fontColor=#FFFFFF;" vertex="1" parent="NjZdGsnl9mEb0PCTOR8s-29">
          <mxGeometry width="141" height="29" as="geometry">
            <mxRectangle width="141" height="29" as="alternateBounds" />
          </mxGeometry>
        </mxCell>
        <mxCell id="NjZdGsnl9mEb0PCTOR8s-31" value="&lt;font style=&quot;font-size: 12px;&quot;&gt;登錄&lt;/font&gt;" style="shape=partialRectangle;html=1;whiteSpace=wrap;connectable=0;strokeColor=inherit;overflow=hidden;fillColor=none;top=0;left=0;bottom=0;right=0;pointerEvents=1;fontSize=16;fontColor=#FFFFFF;" vertex="1" parent="NjZdGsnl9mEb0PCTOR8s-29">
          <mxGeometry x="141" width="143" height="29" as="geometry">
            <mxRectangle width="143" height="29" as="alternateBounds" />
          </mxGeometry>
        </mxCell>
        <mxCell id="NjZdGsnl9mEb0PCTOR8s-32" value="&lt;font style=&quot;font-size: 12px;&quot;&gt;管理介面&lt;/font&gt;" style="shape=partialRectangle;html=1;whiteSpace=wrap;connectable=0;strokeColor=inherit;overflow=hidden;fillColor=none;top=0;left=0;bottom=0;right=0;pointerEvents=1;fontSize=16;fontColor=#FFFFFF;" vertex="1" parent="NjZdGsnl9mEb0PCTOR8s-29">
          <mxGeometry x="284" width="142" height="29" as="geometry">
            <mxRectangle width="142" height="29" as="alternateBounds" />
          </mxGeometry>
        </mxCell>
        <mxCell id="NjZdGsnl9mEb0PCTOR8s-33" value="&lt;span style=&quot;font-size: 12px;&quot;&gt;訂餐者管理介面&lt;/span&gt;" style="shape=partialRectangle;html=1;whiteSpace=wrap;connectable=0;strokeColor=inherit;overflow=hidden;fillColor=none;top=0;left=0;bottom=0;right=0;pointerEvents=1;fontSize=16;fontColor=#FFFFFF;shadow=1;" vertex="1" parent="NjZdGsnl9mEb0PCTOR8s-29">
          <mxGeometry x="426" width="142" height="29" as="geometry">
            <mxRectangle width="142" height="29" as="alternateBounds" />
          </mxGeometry>
        </mxCell>
        <mxCell id="NjZdGsnl9mEb0PCTOR8s-34" value="&lt;font style=&quot;font-size: 12px;&quot;&gt;訂餐者數據庫&lt;/font&gt;" style="shape=partialRectangle;html=1;whiteSpace=wrap;connectable=0;strokeColor=inherit;overflow=hidden;fillColor=none;top=0;left=0;bottom=0;right=0;pointerEvents=1;fontSize=16;fontColor=#FFFFFF;shadow=1;" vertex="1" parent="NjZdGsnl9mEb0PCTOR8s-29">
          <mxGeometry x="568" width="141" height="29" as="geometry">
            <mxRectangle width="141" height="29" as="alternateBounds" />
          </mxGeometry>
        </mxCell>
        <mxCell id="NjZdGsnl9mEb0PCTOR8s-36" value="&lt;u&gt;訂餐者數據庫&lt;/u&gt;" style="rounded=0;whiteSpace=wrap;html=1;strokeColor=#FFFFFF;fontColor=#FFFFFF;fillColor=#003300;labelBackgroundColor=none;" vertex="1" parent="WIyWlLk6GJQsqaUBKTNV-1">
          <mxGeometry x="653" y="120" width="84" height="37" as="geometry" />
        </mxCell>
        <mxCell id="NjZdGsnl9mEb0PCTOR8s-41" value="" style="edgeStyle=orthogonalEdgeStyle;rounded=0;orthogonalLoop=1;jettySize=auto;html=1;curved=0;" edge="1" parent="WIyWlLk6GJQsqaUBKTNV-1" source="NjZdGsnl9mEb0PCTOR8s-39" target="NjZdGsnl9mEb0PCTOR8s-4">
          <mxGeometry relative="1" as="geometry" />
        </mxCell>
        <mxCell id="NjZdGsnl9mEb0PCTOR8s-42" value="" style="edgeStyle=orthogonalEdgeStyle;rounded=0;orthogonalLoop=1;jettySize=auto;html=1;curved=0;" edge="1" parent="WIyWlLk6GJQsqaUBKTNV-1" source="NjZdGsnl9mEb0PCTOR8s-39" target="NjZdGsnl9mEb0PCTOR8s-4">
          <mxGeometry relative="1" as="geometry" />
        </mxCell>
        <mxCell id="NjZdGsnl9mEb0PCTOR8s-43" value="" style="edgeStyle=orthogonalEdgeStyle;rounded=0;orthogonalLoop=1;jettySize=auto;html=1;curved=0;" edge="1" parent="WIyWlLk6GJQsqaUBKTNV-1" source="NjZdGsnl9mEb0PCTOR8s-39" target="NjZdGsnl9mEb0PCTOR8s-4">
          <mxGeometry relative="1" as="geometry" />
        </mxCell>
        <mxCell id="NjZdGsnl9mEb0PCTOR8s-39" value="" style="html=1;points=[[0,0,0,0,5],[0,1,0,0,-5],[1,0,0,0,5],[1,1,0,0,-5]];perimeter=orthogonalPerimeter;outlineConnect=0;targetShapes=umlLifeline;portConstraint=eastwest;newEdgeStyle={&quot;curved&quot;:0,&quot;rounded&quot;:0};strokeColor=#FFFFFF;fontColor=#FFFFFF;fillColor=#003300;labelBackgroundColor=none;" vertex="1" parent="WIyWlLk6GJQsqaUBKTNV-1">
          <mxGeometry x="201" y="168" width="11" height="18" as="geometry" />
        </mxCell>
        <mxCell id="NjZdGsnl9mEb0PCTOR8s-45" value="" style="html=1;points=[[0,0,0,0,5],[0,1,0,0,-5],[1,0,0,0,5],[1,1,0,0,-5]];perimeter=orthogonalPerimeter;outlineConnect=0;targetShapes=umlLifeline;portConstraint=eastwest;newEdgeStyle={&quot;curved&quot;:0,&quot;rounded&quot;:0};strokeColor=#FFFFFF;fontColor=#FFFFFF;fillColor=#003300;labelBackgroundColor=none;" vertex="1" parent="WIyWlLk6GJQsqaUBKTNV-1">
          <mxGeometry x="363" y="168" width="11" height="18" as="geometry" />
        </mxCell>
        <mxCell id="NjZdGsnl9mEb0PCTOR8s-46" value="" style="html=1;points=[[0,0,0,0,5],[0,1,0,0,-5],[1,0,0,0,5],[1,1,0,0,-5]];perimeter=orthogonalPerimeter;outlineConnect=0;targetShapes=umlLifeline;portConstraint=eastwest;newEdgeStyle={&quot;curved&quot;:0,&quot;rounded&quot;:0};strokeColor=#FFFFFF;fontColor=#FFFFFF;fillColor=#003300;labelBackgroundColor=none;" vertex="1" parent="WIyWlLk6GJQsqaUBKTNV-1">
          <mxGeometry x="526" y="168" width="11" height="18" as="geometry" />
        </mxCell>
        <mxCell id="NjZdGsnl9mEb0PCTOR8s-47" value="" style="html=1;points=[[0,0,0,0,5],[0,1,0,0,-5],[1,0,0,0,5],[1,1,0,0,-5]];perimeter=orthogonalPerimeter;outlineConnect=0;targetShapes=umlLifeline;portConstraint=eastwest;newEdgeStyle={&quot;curved&quot;:0,&quot;rounded&quot;:0};strokeColor=#FFFFFF;fontColor=#FFFFFF;fillColor=#003300;labelBackgroundColor=none;" vertex="1" parent="WIyWlLk6GJQsqaUBKTNV-1">
          <mxGeometry x="689" y="168" width="11" height="18" as="geometry" />
        </mxCell>
        <mxCell id="NjZdGsnl9mEb0PCTOR8s-48" value="" style="rounded=0;orthogonalLoop=1;jettySize=auto;html=1;strokeColor=#006600;labelBackgroundColor=none;fontColor=default;entryX=0.763;entryY=0.14;entryDx=0;entryDy=0;entryPerimeter=0;dashed=1;" edge="1" parent="WIyWlLk6GJQsqaUBKTNV-1">
          <mxGeometry relative="1" as="geometry">
            <mxPoint x="363" y="250.20000000000002" as="sourcePoint" />
            <mxPoint x="70.60000000000002" y="248.794" as="targetPoint" />
          </mxGeometry>
        </mxCell>
        <mxCell id="NjZdGsnl9mEb0PCTOR8s-49" value="3:驗證結果" style="text;html=1;align=center;verticalAlign=middle;resizable=0;points=[];autosize=1;strokeColor=none;fillColor=none;fontColor=#FFFFFF;labelBackgroundColor=none;" vertex="1" parent="WIyWlLk6GJQsqaUBKTNV-1">
          <mxGeometry x="168" y="228" width="76" height="26" as="geometry" />
        </mxCell>
        <mxCell id="NjZdGsnl9mEb0PCTOR8s-20" value="" style="rounded=0;orthogonalLoop=1;jettySize=auto;html=1;strokeColor=#006600;dashed=1;labelBackgroundColor=none;fontColor=default;entryX=1.043;entryY=0.011;entryDx=0;entryDy=0;entryPerimeter=0;" edge="1" parent="WIyWlLk6GJQsqaUBKTNV-1">
          <mxGeometry relative="1" as="geometry">
            <mxPoint x="537" y="320" as="sourcePoint" />
            <mxPoint x="691.5000000000001" y="319.557" as="targetPoint" />
          </mxGeometry>
        </mxCell>
        <mxCell id="NjZdGsnl9mEb0PCTOR8s-58" value="" style="html=1;points=[[0,0,0,0,5],[0,1,0,0,-5],[1,0,0,0,5],[1,1,0,0,-5]];perimeter=orthogonalPerimeter;outlineConnect=0;targetShapes=umlLifeline;portConstraint=eastwest;newEdgeStyle={&quot;curved&quot;:0,&quot;rounded&quot;:0};strokeColor=#FFFFFF;fontColor=#FFFFFF;fillColor=#003300;labelBackgroundColor=none;" vertex="1" parent="WIyWlLk6GJQsqaUBKTNV-1">
          <mxGeometry x="527" y="369" width="10" height="27" as="geometry" />
        </mxCell>
        <mxCell id="NjZdGsnl9mEb0PCTOR8s-59" value="" style="html=1;points=[[0,0,0,0,5],[0,1,0,0,-5],[1,0,0,0,5],[1,1,0,0,-5]];perimeter=orthogonalPerimeter;outlineConnect=0;targetShapes=umlLifeline;portConstraint=eastwest;newEdgeStyle={&quot;curved&quot;:0,&quot;rounded&quot;:0};strokeColor=#FFFFFF;fontColor=#FFFFFF;fillColor=#003300;labelBackgroundColor=none;" vertex="1" parent="WIyWlLk6GJQsqaUBKTNV-1">
          <mxGeometry x="690" y="369" width="10" height="27" as="geometry" />
        </mxCell>
        <mxCell id="NjZdGsnl9mEb0PCTOR8s-60" value="6:提交結果顯示" style="text;html=1;align=center;verticalAlign=middle;resizable=0;points=[];autosize=1;strokeColor=none;fillColor=none;fontColor=#FFFFFF;labelBackgroundColor=none;" vertex="1" parent="WIyWlLk6GJQsqaUBKTNV-1">
          <mxGeometry x="567" y="347" width="100" height="26" as="geometry" />
        </mxCell>
        <mxCell id="NjZdGsnl9mEb0PCTOR8s-61" value="" style="rounded=0;orthogonalLoop=1;jettySize=auto;html=1;strokeColor=#006600;dashed=1;labelBackgroundColor=none;fontColor=default;entryX=1.043;entryY=0.011;entryDx=0;entryDy=0;entryPerimeter=0;startArrow=classic;startFill=1;endArrow=none;endFill=0;" edge="1" parent="WIyWlLk6GJQsqaUBKTNV-1">
          <mxGeometry relative="1" as="geometry">
            <mxPoint x="537" y="369" as="sourcePoint" />
            <mxPoint x="691.5000000000001" y="368.557" as="targetPoint" />
          </mxGeometry>
        </mxCell>
        <mxCell id="NjZdGsnl9mEb0PCTOR8s-65" value="" style="edgeStyle=orthogonalEdgeStyle;rounded=0;orthogonalLoop=1;jettySize=auto;html=1;curved=0;" edge="1" parent="WIyWlLk6GJQsqaUBKTNV-1" source="NjZdGsnl9mEb0PCTOR8s-63" target="NjZdGsnl9mEb0PCTOR8s-64">
          <mxGeometry relative="1" as="geometry" />
        </mxCell>
        <mxCell id="NjZdGsnl9mEb0PCTOR8s-63" value="" style="html=1;points=[[0,0,0,0,5],[0,1,0,0,-5],[1,0,0,0,5],[1,1,0,0,-5]];perimeter=orthogonalPerimeter;outlineConnect=0;targetShapes=umlLifeline;portConstraint=eastwest;newEdgeStyle={&quot;curved&quot;:0,&quot;rounded&quot;:0};strokeColor=#FFFFFF;fontColor=#FFFFFF;fillColor=#003300;labelBackgroundColor=none;" vertex="1" parent="WIyWlLk6GJQsqaUBKTNV-1">
          <mxGeometry x="527" y="418" width="10" height="27" as="geometry" />
        </mxCell>
        <mxCell id="NjZdGsnl9mEb0PCTOR8s-64" value="" style="html=1;points=[[0,0,0,0,5],[0,1,0,0,-5],[1,0,0,0,5],[1,1,0,0,-5]];perimeter=orthogonalPerimeter;outlineConnect=0;targetShapes=umlLifeline;portConstraint=eastwest;newEdgeStyle={&quot;curved&quot;:0,&quot;rounded&quot;:0};strokeColor=#FFFFFF;fontColor=#FFFFFF;fillColor=#003300;labelBackgroundColor=none;" vertex="1" parent="WIyWlLk6GJQsqaUBKTNV-1">
          <mxGeometry x="65" y="418" width="10" height="27" as="geometry" />
        </mxCell>
      </root>
    </mxGraphModel>
  </diagram>
</mxfile>
